<svg width="213" height="168" viewBox="0 0 213 168" fill="none" xmlns="http://www.w3.org/2000/svg">
<path fill-rule="evenodd" clip-rule="evenodd" d="M153.589 20.3587C153.589 21.7216 153.394 23.0845 153.005 24.2527C150.475 31.846 157.287 30.6777 156.703 22.5003C154.757 -1.44786 119.527 -2.81066 102.398 2.64095C76.9001 11.0131 54.5163 31.0672 47.1199 57.3517C43.811 70.0073 43.6164 82.8576 51.986 93.7608C49.8449 102.328 49.261 110.894 49.8449 119.267C51.7913 128.612 54.127 121.214 52.9592 119.267C51.986 111.284 51.4021 103.69 53.3485 95.9024C70.8662 110.31 86.0483 103.496 100.841 92.3979C83.5179 111.868 66.1948 141.852 33.8843 140.878C-2.70831 137.374 -8.93685 80.7158 29.4075 60.8563C37.7771 56.5729 33.3004 53.0684 27.6558 57.1571C-44.9455 105.832 43.6164 210.386 110.768 90.6455C119.721 78.7688 128.285 66.6974 137.239 54.8207C140.353 50.732 131.984 50.3426 129.453 53.8472C115.828 74.8748 83.1286 119.461 54.5163 93.1767C63.4698 44.6963 129.064 46.838 166.435 46.4486C121.084 68.4497 111.741 121.603 77.2894 151.782C9.35945 139.515 18.1183 188.969 80.4037 155.481C120.889 160.738 165.657 173.783 198.94 141.462C210.035 128.223 215.68 113.231 211.397 95.7078C208.478 82.0787 203.028 86.7516 207.699 95.1237C220.156 137.374 174.416 166.968 84.8804 153.339C130.037 121.603 130.232 53.8472 190.765 40.2181C198.94 37.8817 197.578 35.9347 194.658 35.9347C193.49 35.9347 192.128 36.5187 190.96 37.1028C139.964 60.0775 84.4911 10.2343 52.3753 89.2827C41.086 44.891 100.646 -2.22663 136.266 4.39318C146.582 6.53489 152.421 11.9865 153.589 20.3587ZM73.7858 154.313C28.629 145.551 18.8969 172.809 56.852 162.49C63.4698 160.738 69.6984 157.817 73.7858 154.313Z" fill="white"/>
</svg>
