<svg width="385" height="90" viewBox="0 0 385 90" fill="none" xmlns="http://www.w3.org/2000/svg">
<path d="M0 72.2826H7.78566C7.98031 75.7872 9.3428 78.7077 12.0678 81.0441C14.7928 83.3805 18.6856 84.5487 23.9409 84.5487C28.807 84.5487 32.6998 83.3805 35.6194 81.0441C38.539 78.7077 39.9015 75.7871 39.9015 72.4772C39.9015 69.9461 38.9283 67.8044 37.1765 66.0521C35.4248 64.2998 32.8944 62.937 29.3909 61.9635C14.7928 57.6801 6.61782 54.5648 4.86604 52.6177C3.11427 50.6707 2.3357 48.1396 2.3357 44.8297C2.3357 40.3516 4.28212 36.6523 8.36959 33.5371C12.4571 30.4219 17.7124 28.8644 24.3302 28.8644C30.3641 28.8644 35.4248 30.2272 39.5122 33.1477C43.5997 36.0682 45.5461 39.9623 45.7408 44.6351H37.9551C37.7605 41.3252 36.2033 38.7941 33.673 36.8471C31.1427 34.9 27.6391 34.1212 23.5516 34.1212C19.4642 34.1212 16.1553 35.0947 13.8196 37.0417C11.4839 38.9887 10.1214 41.5198 10.1214 44.8297C10.1214 47.5555 11.0946 49.6973 13.2356 51.0602C15.3767 52.4231 19.4642 53.786 25.4981 55.1489C34.2569 57.096 40.0962 59.4323 43.2104 62.1581C46.1301 65.0786 47.6872 68.3885 47.6872 72.4772C47.6872 77.5394 45.3515 81.6281 40.8747 84.7433C36.398 87.8585 30.7534 89.6108 23.9409 89.6108C17.1285 89.6108 11.2892 88.0532 6.61782 84.7433C2.14106 81.6281 0 77.5395 0 72.2826ZM51.1907 88.8321L84.8637 30.0325H93.428L126.906 88.8321H118.537L107.442 69.1673H70.6549L59.5603 88.8321H51.1907ZM73.7692 63.7157H104.133L88.9512 36.8471L73.7692 63.7157ZM138.001 88.8321V35.2895H120.289V30.0325H163.499V35.2895H145.787V88.8321H138.001ZM172.258 30.0325H180.043V65.8575C180.043 72.2826 181.601 77.1501 184.91 80.0706C188.218 82.9911 192.89 84.5487 198.924 84.5487C204.763 84.5487 209.434 83.1858 212.743 80.0706C216.052 76.9554 217.804 72.2825 217.804 65.6627V30.0325H225.59V65.8575C225.59 74.0349 223.059 80.0705 218.388 84.1593C213.522 88.0533 207.099 90.0003 198.924 90.0003C190.554 90.0003 184.131 88.0533 179.265 84.1593C174.399 80.2652 172.063 74.2296 172.258 66.0521V30.0325ZM240.966 88.8321V30.0325H262.766C273.082 30.0325 280.868 31.7849 285.929 35.2895C290.989 38.7941 293.52 43.4669 293.714 49.3079C293.714 54.1754 291.573 58.2641 287.291 61.574C283.009 64.884 277.559 66.6362 270.746 67.0256L292.546 89.0268H283.009L256.538 62.3528H262.766C270.552 62.3528 276.391 61.1846 280.089 58.8482C283.787 56.5118 285.734 53.2019 285.929 48.9185C285.929 44.8298 283.982 41.5199 280.089 39.1835C276.196 36.8471 270.357 35.6788 262.766 35.4841H248.752V89.0268H240.966V88.8321ZM298.191 88.8321L331.864 30.0325H340.428L373.907 88.8321H365.537L354.442 69.1673H318.044L306.95 88.8321H298.191ZM320.964 63.7157H351.328L336.146 36.8471L320.964 63.7157Z" fill="white"/>
<path fill-rule="evenodd" clip-rule="evenodd" d="M351.912 17.1828C351.912 26.139 359.308 33.5375 368.262 33.5375C377.41 33.5375 384.612 26.139 384.612 17.1828C384.612 8.22655 377.41 0.827881 368.262 0.827881C359.114 0.827881 351.912 8.22655 351.912 17.1828ZM354.832 17.1828C354.832 9.39475 360.866 3.16431 368.067 3.16431C375.464 3.16431 381.303 9.39475 381.303 17.1828C381.303 24.7761 375.464 31.2011 368.067 31.2011C360.866 31.2011 354.832 24.9708 354.832 17.1828ZM362.228 25.1654H365.342V18.3509H367.873C371.376 18.3509 371.376 19.9085 371.571 21.4661C371.571 24.1919 371.571 24.5813 372.155 25.1654H375.269C374.685 24.1919 374.685 23.8025 374.685 21.2714C374.685 19.7138 374.491 17.7668 372.349 17.3774C374.88 16.4039 375.074 14.8463 375.074 13.6781C375.074 9.39466 371.376 9.00533 369.624 9.00533H362.423V25.1654H362.228ZM365.342 11.147H368.457C370.403 11.147 371.766 11.7311 371.766 13.6781C371.766 14.8463 371.376 16.2093 368.846 16.2093H365.342V11.147Z" fill="white"/>
</svg>
