<svg width="15" height="12" viewBox="0 0 15 12" fill="none" xmlns="http://www.w3.org/2000/svg">
<path d="M0 6.0146C0 6.1464 0.0544589 6.27281 0.151396 6.36601C0.248333 6.45921 0.379809 6.51157 0.516899 6.51157H13.1809L8.01193 11.1384C7.91151 11.2284 7.85237 11.353 7.84753 11.4849C7.84268 11.6167 7.89252 11.7451 7.98608 11.8416C8.07965 11.9382 8.20927 11.995 8.34644 11.9997C8.4836 12.0043 8.61708 11.9564 8.71749 11.8665L14.835 6.37739C14.887 6.33087 14.9286 6.27454 14.957 6.21191C14.9853 6.14927 15 6.08168 15 6.01335C15 5.94503 14.9853 5.87744 14.957 5.8148C14.9286 5.75217 14.887 5.69583 14.835 5.64932L8.70974 0.16272C8.6615 0.111682 8.60273 0.0708572 8.53718 0.0428435C8.47163 0.0148298 8.40073 0.000240176 8.329 2.94042e-06C8.25727 -0.000234295 8.18627 0.0138862 8.12052 0.0414657C8.05477 0.0690451 7.99572 0.10948 7.94711 0.160198C7.8985 0.210916 7.8614 0.270806 7.83817 0.336059C7.81494 0.401311 7.8061 0.470498 7.8122 0.539216C7.81829 0.607935 7.8392 0.674681 7.87359 0.735208C7.90797 0.795735 7.95509 0.848719 8.01193 0.890788L13.1809 5.51762H0.516899C0.379809 5.51762 0.248333 5.56998 0.151396 5.66318C0.0544589 5.75638 0 5.88279 0 6.0146Z" fill="#5E5B40"/>
</svg>
